<?xml version="1.0" standalone="no"?><!DOCTYPE svg PUBLIC "-//W3C//DTD SVG 1.1//EN" "http://www.w3.org/Graphics/SVG/1.1/DTD/svg11.dtd"><svg class="icon" width="200px" height="200.00px" viewBox="0 0 1024 1024" version="1.1" xmlns="http://www.w3.org/2000/svg"><path fill="#333333" d="M508.5 959.6c-20.8 0-41.6-5.4-60.2-16.1L164.7 779.7c-37.1-21.4-60.2-61.3-60.2-104.2V348c0-42.9 23.1-82.9 60.2-104.3L448.3 80c37.1-21.5 83.3-21.4 120.4 0l283.6 163.8c37.1 21.5 60.2 61.4 60.2 104.3v327.5c0 42.9-23.1 82.8-60.2 104.2L568.7 943.4a119.82 119.82 0 0 1-60.2 16.2z m0-856.9c-14.1 0-28.2 3.6-40.8 10.9L184.1 277.3c-25.2 14.6-40.8 41.6-40.8 70.7v327.5c0 29.1 15.6 56.1 40.8 70.6l283.6 163.8c25.2 14.5 56.4 14.5 81.6 0l283.6-163.7c25.2-14.5 40.8-41.6 40.8-70.6V348c0-29-15.6-56.1-40.8-70.7L549.3 113.6c-12.6-7.3-26.7-10.9-40.8-10.9z m142.1 605.8H366.4c-30.7 0-55.8-25-55.8-55.8V508.2c0-30.8 25-55.8 55.8-55.8h284.1c30.8 0 55.8 25 55.8 55.8v144.6c0 30.7-25 55.7-55.7 55.7zM366.4 491.2c-9.2 0-16.9 7.7-16.9 16.9v144.6c0 9.3 7.6 16.9 16.9 16.9h284.1c9.3 0 16.9-7.6 16.9-16.9V508.2c0-9.2-7.7-16.9-16.9-16.9H366.4z m321.8-86.6c0-10.7-8.7-19.4-19.4-19.4H348.2c-10.7 0-19.4 8.7-19.4 19.4s8.7 19.4 19.4 19.4h320.5c10.8 0 19.5-8.7 19.5-19.4z m-24.5-70.2c0-10.7-8.7-19.4-19.4-19.4H372.7c-10.7 0-19.4 8.7-19.4 19.4s8.7 19.4 19.4 19.4h271.5c10.8 0 19.5-8.7 19.5-19.4z" /></svg>