<?xml version="1.0" standalone="no"?><!DOCTYPE svg PUBLIC "-//W3C//DTD SVG 1.1//EN" "http://www.w3.org/Graphics/SVG/1.1/DTD/svg11.dtd"><svg class="icon" width="200px" height="200.00px" viewBox="0 0 1024 1024" version="1.1" xmlns="http://www.w3.org/2000/svg"><path fill="#333333" d="M608.5 505.5c79.8-37.1 135.4-116.9 135.4-209.6C743.9 167.9 640 64 512 64S280.1 167.9 280.1 295.9c0 92.8 55.7 172.5 135.4 209.6C215.2 550 66.8 728.1 66.8 941.4V960h890.4v-18.6c0-213.3-148.4-391.4-348.7-435.9zM317.2 295.9c0-107.6 87.2-194.8 194.8-194.8s194.8 87.2 194.8 194.8S619.6 490.7 512 490.7s-194.8-87.2-194.8-194.8z m-213.3 627c9.3-217 189.2-389.6 408.1-389.6s398.8 172.5 408.1 389.6H103.9z" /></svg>